ffmpeg started on 2025-05-12 at 20:28:52
Report written to "D:\Convert\FFMetrics\reports\psnr_report-6.txt"
Log level: 32
Command line:
ffmpeg -hide_banner -nostdin -i "G:\\\xc0\xed\xe8\xec\xe5\\\xce\xed\xe3\xee\xe8\xed\xe3\xe8\\!_35_\xcb\xe5\xf2\xee_2024\\DreamCast-1\\\xcf\xee\xeb\xf3\xed\xee\xf7\xed\xfb\xe9 \xf3\xe4\xe0\xf0\\[DC] Mayonaka Punch - 11_Telegram_HEVC.mkv" -i "G:\\\xc0\xed\xe8\xec\xe5\\\xce\xed\xe3\xee\xe8\xed\xe3\xe8\\!_35_\xcb\xe5\xf2\xee_2024\\DreamCast-1\\\xcf\xee\xeb\xf3\xed\xee\xf7\xed\xfb\xe9 \xf3\xe4\xe0\xf0\\[DC] Mayonaka Punch - 11_Telegram.mp4" -lavfi "[0:v]settb=AVTB,setpts=PTS-STARTPTS,format=pix_fmts=yuv420p10,fps=24000/1001,scale=1920:1080:flags=bicubic[main];[1:v]settb=AVTB,setpts=PTS-STARTPTS,format=pix_fmts=yuv420p,fps=24000/1001,scale=1920:1080:flags=bicubic[ref];[main][ref]psnr=eof_action=endall:stats_file='D\\:/Convert/FFMetrics/logs/psnr_logfile-6.txt'" -f null -
Input #0, matroska,webm, from 'G:\Аниме\Онгоинги\!_35_Лето_2024\DreamCast-1\Полуночный удар\[DC] Mayonaka Punch - 11_Telegram_HEVC.mkv':
  Metadata:
    COMPATIBLE_BRANDS: isomiso2avc1mp41
    MAJOR_BRAND     : isom
    MINOR_VERSION   : 512
    ENCODER         : Lavf61.7.100
  Duration: 00:23:47.71, start: -0.021000, bitrate: 1130 kb/s
  Stream #0:0: Video: hevc (Main 10), yuv420p10le(tv, bt709, progressive), 1920x1080 [SAR 1:1 DAR 16:9], 23.98 fps, 23.98 tbr, 1k tbn (default)
      Metadata:
        HANDLER_NAME    : VideoHandler
        VENDOR_ID       : [0][0][0][0]
        ENCODER         : Lavc61.19.100 libx265
        BPS             : 934243
        DURATION        : 00:23:46.549708333
        NUMBER_OF_FRAMES: 34203
        NUMBER_OF_BYTES : 166593065
        _STATISTICS_WRITING_APP: mkvpropedit v66.0.0 ('Josie') 64-bit
        _STATISTICS_WRITING_DATE_UTC: 2025-05-10 12:01:28
        _STATISTICS_TAGS: BPS DURATION NUMBER_OF_FRAMES NUMBER_OF_BYTES
  Stream #0:1: Audio: aac (LC), 48000 Hz, stereo, fltp (default)
      Metadata:
        HANDLER_NAME    : SoundHandler
        VENDOR_ID       : [0][0][0][0]
        ENCODER         : Lavc61.19.100 aac
        BPS             : 193165
        DURATION        : 00:23:47.712000000
        NUMBER_OF_FRAMES: 66925
        NUMBER_OF_BYTES : 34473066
        _STATISTICS_WRITING_APP: mkvpropedit v66.0.0 ('Josie') 64-bit
        _STATISTICS_WRITING_DATE_UTC: 2025-05-10 12:01:28
        _STATISTICS_TAGS: BPS DURATION NUMBER_OF_FRAMES NUMBER_OF_BYTES
Input #1, mov,mp4,m4a,3gp,3g2,mj2, from 'G:\Аниме\Онгоинги\!_35_Лето_2024\DreamCast-1\Полуночный удар\[DC] Mayonaka Punch - 11_Telegram.mp4':
  Metadata:
    major_brand     : isom
    minor_version   : 512
    compatible_brands: isomiso2avc1mp41
    encoder         : Lavf61.1.100
  Duration: 00:23:47.68, start: 0.000000, bitrate: 3786 kb/s
  Stream #1:0[0x1](und): Video: h264 (High) (avc1 / 0x31637661), yuv420p(tv, bt709, progressive), 1920x1080 [SAR 1:1 DAR 16:9], 3641 kb/s, 23.98 fps, 23.98 tbr, 24k tbn (default)
      Metadata:
        handler_name    : VideoHandler
        vendor_id       : [0][0][0][0]
        encoder         : Lavc61.3.100 h264_qsv
  Stream #1:1[0x2](und): Audio: aac (HE-AACv2) (mp4a / 0x6134706D), 48000 Hz, stereo, fltp, 144 kb/s (default)
      Metadata:
        handler_name    : SoundHandler
        vendor_id       : [0][0][0][0]
Stream mapping:
  Stream #0:0 (hevc) -> settb:default
  Stream #1:0 (h264) -> settb:default
  psnr:default -> Stream #0:0 (wrapped_avframe)
  Stream #0:1 -> #0:1 (aac (native) -> pcm_s16le (native))
Output #0, null, to 'pipe:':
  Metadata:
    COMPATIBLE_BRANDS: isomiso2avc1mp41
    MAJOR_BRAND     : isom
    MINOR_VERSION   : 512
    encoder         : Lavf61.7.100
  Stream #0:0: Video: wrapped_avframe, yuv420p10le(tv, bt709, progressive), 1920x1080 [SAR 1:1 DAR 16:9], q=2-31, 200 kb/s, 23.98 fps, 23.98 tbn
      Metadata:
        encoder         : Lavc61.19.100 wrapped_avframe
  Stream #0:1: Audio: pcm_s16le, 48000 Hz, stereo, s16, 1536 kb/s (default)
      Metadata:
        HANDLER_NAME    : SoundHandler
        VENDOR_ID       : [0][0][0][0]
        _STATISTICS_TAGS: BPS DURATION NUMBER_OF_FRAMES NUMBER_OF_BYTES
        BPS             : 193165
        DURATION        : 00:23:47.712000000
        NUMBER_OF_FRAMES: 66925
        NUMBER_OF_BYTES : 34473066
        _STATISTICS_WRITING_APP: mkvpropedit v66.0.0 ('Josie') 64-bit
        _STATISTICS_WRITING_DATE_UTC: 2025-05-10 12:01:28
        encoder         : Lavc61.19.100 pcm_s16le
frame=  155 fps=0.0 q=-0.0 size=N/A time=00:00:06.46 bitrate=N/A speed=12.2x    frame=  381 fps=368 q=-0.0 size=N/A time=00:00:15.89 bitrate=N/A speed=15.3x    frame=  610 fps=391 q=-0.0 size=N/A time=00:00:25.44 bitrate=N/A speed=16.3x    frame=  851 fps=410 q=-0.0 size=N/A time=00:00:35.49 bitrate=N/A speed=17.1x    frame= 1071 fps=415 q=-0.0 size=N/A time=00:00:44.66 bitrate=N/A speed=17.3x    frame= 1307 fps=421 q=-0.0 size=N/A time=00:00:54.51 bitrate=N/A speed=17.5x    frame= 1525 fps=421 q=-0.0 size=N/A time=00:01:03.60 bitrate=N/A speed=17.6x    frame= 1757 fps=426 q=-0.0 size=N/A time=00:01:13.28 bitrate=N/A speed=17.8x    frame= 2009 fps=432 q=-0.0 size=N/A time=00:01:23.83 bitrate=N/A speed=  18x    frame= 2233 fps=433 q=-0.0 size=N/A time=00:01:33.13 bitrate=N/A speed=18.1x    frame= 2439 fps=430 q=-0.0 size=N/A time=00:01:41.72 bitrate=N/A speed=17.9x    frame= 2604 fps=420 q=-0.0 size=N/A time=00:01:48.60 bitrate=N/A speed=17.5x    frame= 2748 fps=410 q=-0.0 size=N/A time=00:01:54.61 bitrate=N/A speed=17.1x    frame= 2929 fps=405 q=-0.0 size=N/A time=00:02:02.16 bitrate=N/A speed=16.9x    frame= 3108 fps=401 q=-0.0 size=N/A time=00:02:09.62 bitrate=N/A speed=16.7x    frame= 3288 fps=398 q=-0.0 size=N/A time=00:02:17.13 bitrate=N/A speed=16.6x    frame= 3455 fps=394 q=-0.0 size=N/A time=00:02:24.10 bitrate=N/A speed=16.4x    frame= 3665 fps=394 q=-0.0 size=N/A time=00:02:32.86 bitrate=N/A speed=16.4x    frame= 3860 fps=394 q=-0.0 size=N/A time=00:02:40.99 bitrate=N/A speed=16.4x    frame= 4057 fps=393 q=-0.0 size=N/A time=00:02:49.21 bitrate=N/A speed=16.4x    frame= 4253 fps=393 q=-0.0 size=N/A time=00:02:57.38 bitrate=N/A speed=16.4x    frame= 4428 fps=390 q=-0.0 size=N/A time=00:03:04.68 bitrate=N/A speed=16.3x    frame= 4616 fps=389 q=-0.0 size=N/A time=00:03:12.52 bitrate=N/A speed=16.2x    frame= 4845 fps=391 q=-0.0 size=N/A time=00:03:22.07 bitrate=N/A speed=16.3x    frame= 5087 fps=394 q=-0.0 size=N/A time=00:03:32.17 bitrate=N/A speed=16.4x    frame= 5335 fps=398 q=-0.0 size=N/A time=00:03:42.51 bitrate=N/A speed=16.6x    frame= 5589 fps=401 q=-0.0 size=N/A time=00:03:53.10 bitrate=N/A speed=16.7x    frame= 5806 fps=402 q=-0.0 size=N/A time=00:04:02.15 bitrate=N/A speed=16.8x    frame= 6067 fps=405 q=-0.0 size=N/A time=00:04:13.04 bitrate=N/A speed=16.9x    frame= 6316 fps=408 q=-0.0 size=N/A time=00:04:23.42 bitrate=N/A speed=  17x    frame= 6520 fps=407 q=-0.0 size=N/A time=00:04:31.93 bitrate=N/A speed=  17x    frame= 6744 fps=408 q=-0.0 size=N/A time=00:04:41.28 bitrate=N/A speed=  17x    frame= 6971 fps=409 q=-0.0 size=N/A time=00:04:50.74 bitrate=N/A speed=17.1x    frame= 7210 fps=411 q=-0.0 size=N/A time=00:05:00.71 bitrate=N/A speed=17.1x    frame= 7435 fps=411 q=-0.0 size=N/A time=00:05:10.10 bitrate=N/A speed=17.2x    frame= 7643 fps=411 q=-0.0 size=N/A time=00:05:18.77 bitrate=N/A speed=17.2x    frame= 7852 fps=411 q=-0.0 size=N/A time=00:05:27.49 bitrate=N/A speed=17.1x    frame= 8041 fps=410 q=-0.0 size=N/A time=00:05:35.37 bitrate=N/A speed=17.1x    frame= 8295 fps=412 q=-0.0 size=N/A time=00:05:45.97 bitrate=N/A speed=17.2x    frame= 8540 fps=413 q=-0.0 size=N/A time=00:05:56.18 bitrate=N/A speed=17.2x    frame= 8810 fps=416 q=-0.0 size=N/A time=00:06:07.45 bitrate=N/A speed=17.4x    frame= 9060 fps=418 q=-0.0 size=N/A time=00:06:17.87 bitrate=N/A speed=17.4x    frame= 9298 fps=419 q=-0.0 size=N/A time=00:06:27.80 bitrate=N/A speed=17.5x    frame= 9554 fps=421 q=-0.0 size=N/A time=00:06:38.48 bitrate=N/A speed=17.5x    frame= 9811 fps=422 q=-0.0 size=N/A time=00:06:49.20 bitrate=N/A speed=17.6x    frame=10051 fps=423 q=-0.0 size=N/A time=00:06:59.21 bitrate=N/A speed=17.7x    frame=10315 fps=425 q=-0.0 size=N/A time=00:07:10.22 bitrate=N/A speed=17.7x    frame=10555 fps=426 q=-0.0 size=N/A time=00:07:20.23 bitrate=N/A speed=17.8x    frame=10805 fps=427 q=-0.0 size=N/A time=00:07:30.65 bitrate=N/A speed=17.8x    frame=11057 fps=428 q=-0.0 size=N/A time=00:07:41.16 bitrate=N/A speed=17.9x    frame=11263 fps=428 q=-0.0 size=N/A time=00:07:49.76 bitrate=N/A speed=17.9x    frame=11514 fps=429 q=-0.0 size=N/A time=00:08:00.22 bitrate=N/A speed=17.9x    frame=11760 fps=430 q=-0.0 size=N/A time=00:08:10.49 bitrate=N/A speed=17.9x    frame=11974 fps=430 q=-0.0 size=N/A time=00:08:19.41 bitrate=N/A speed=17.9x    frame=12192 fps=430 q=-0.0 size=N/A time=00:08:28.50 bitrate=N/A speed=17.9x    frame=12437 fps=430 q=-0.0 size=N/A time=00:08:38.72 bitrate=N/A speed=17.9x    frame=12671 fps=431 q=-0.0 size=N/A time=00:08:48.48 bitrate=N/A speed=  18x    frame=12863 fps=430 q=-0.0 size=N/A time=00:08:56.49 bitrate=N/A speed=17.9x    frame=13126 fps=431 q=-0.0 size=N/A time=00:09:07.46 bitrate=N/A speed=  18x    frame=13357 fps=431 q=-0.0 size=N/A time=00:09:17.09 bitrate=N/A speed=  18x    frame=13588 fps=432 q=-0.0 size=N/A time=00:09:26.73 bitrate=N/A speed=  18x    frame=13828 fps=432 q=-0.0 size=N/A time=00:09:36.74 bitrate=N/A speed=  18x    frame=14087 fps=433 q=-0.0 size=N/A time=00:09:47.54 bitrate=N/A speed=18.1x    frame=14360 fps=435 q=-0.0 size=N/A time=00:09:58.93 bitrate=N/A speed=18.1x    frame=14574 fps=434 q=-0.0 size=N/A time=00:10:07.85 bitrate=N/A speed=18.1x    frame=14803 fps=434 q=-0.0 size=N/A time=00:10:17.40 bitrate=N/A speed=18.1x    frame=15034 fps=435 q=-0.0 size=N/A time=00:10:27.04 bitrate=N/A speed=18.1x    frame=15268 fps=435 q=-0.0 size=N/A time=00:10:36.80 bitrate=N/A speed=18.1x    frame=15521 fps=436 q=-0.0 size=N/A time=00:10:47.35 bitrate=N/A speed=18.2x    frame=15765 fps=436 q=-0.0 size=N/A time=00:10:57.53 bitrate=N/A speed=18.2x    frame=16001 fps=437 q=-0.0 size=N/A time=00:11:07.37 bitrate=N/A speed=18.2x    frame=16271 fps=438 q=-0.0 size=N/A time=00:11:18.63 bitrate=N/A speed=18.3x    frame=16519 fps=438 q=-0.0 size=N/A time=00:11:28.97 bitrate=N/A speed=18.3x    frame=16759 fps=439 q=-0.0 size=N/A time=00:11:38.98 bitrate=N/A speed=18.3x    frame=16998 fps=439 q=-0.0 size=N/A time=00:11:48.95 bitrate=N/A speed=18.3x    frame=17239 fps=439 q=-0.0 size=N/A time=00:11:59.00 bitrate=N/A speed=18.3x    frame=17442 fps=439 q=-0.0 size=N/A time=00:12:07.47 bitrate=N/A speed=18.3x    frame=17645 fps=438 q=-0.0 size=N/A time=00:12:15.94 bitrate=N/A speed=18.3x    frame=17891 fps=439 q=-0.0 size=N/A time=00:12:26.20 bitrate=N/A speed=18.3x    frame=18150 fps=440 q=-0.0 size=N/A time=00:12:37.00 bitrate=N/A speed=18.3x    frame=18391 fps=440 q=-0.0 size=N/A time=00:12:47.05 bitrate=N/A speed=18.3x    frame=18650 fps=441 q=-0.0 size=N/A time=00:12:57.86 bitrate=N/A speed=18.4x    frame=18878 fps=441 q=-0.0 size=N/A time=00:13:07.36 bitrate=N/A speed=18.4x    frame=19131 fps=441 q=-0.0 size=N/A time=00:13:17.92 bitrate=N/A speed=18.4x    frame=19393 fps=442 q=-0.0 size=N/A time=00:13:28.84 bitrate=N/A speed=18.4x    frame=19609 fps=442 q=-0.0 size=N/A time=00:13:37.85 bitrate=N/A speed=18.4x    frame=19838 fps=442 q=-0.0 size=N/A time=00:13:47.40 bitrate=N/A speed=18.4x    frame=20068 fps=442 q=-0.0 size=N/A time=00:13:57.00 bitrate=N/A speed=18.4x    frame=20290 fps=442 q=-0.0 size=N/A time=00:14:06.26 bitrate=N/A speed=18.4x    frame=20475 fps=441 q=-0.0 size=N/A time=00:14:13.97 bitrate=N/A speed=18.4x    frame=20718 fps=441 q=-0.0 size=N/A time=00:14:24.11 bitrate=N/A speed=18.4x    frame=20962 fps=441 q=-0.0 size=N/A time=00:14:34.29 bitrate=N/A speed=18.4x    frame=21175 fps=441 q=-0.0 size=N/A time=00:14:43.17 bitrate=N/A speed=18.4x    frame=21417 fps=441 q=-0.0 size=N/A time=00:14:53.26 bitrate=N/A speed=18.4x    frame=21639 fps=441 q=-0.0 size=N/A time=00:15:02.52 bitrate=N/A speed=18.4x    frame=21873 fps=441 q=-0.0 size=N/A time=00:15:12.28 bitrate=N/A speed=18.4x    frame=22072 fps=441 q=-0.0 size=N/A time=00:15:20.58 bitrate=N/A speed=18.4x    frame=22293 fps=441 q=-0.0 size=N/A time=00:15:29.80 bitrate=N/A speed=18.4x    frame=22514 fps=441 q=-0.0 size=N/A time=00:15:39.02 bitrate=N/A speed=18.4x    frame=22724 fps=440 q=-0.0 size=N/A time=00:15:47.78 bitrate=N/A speed=18.4x    frame=22954 fps=440 q=-0.0 size=N/A time=00:15:57.37 bitrate=N/A speed=18.4x    frame=23193 fps=440 q=-0.0 size=N/A time=00:16:07.34 bitrate=N/A speed=18.4x    frame=23415 fps=440 q=-0.0 size=N/A time=00:16:16.60 bitrate=N/A speed=18.4x    frame=23644 fps=440 q=-0.0 size=N/A time=00:16:26.15 bitrate=N/A speed=18.4x    frame=23878 fps=441 q=-0.0 size=N/A time=00:16:35.91 bitrate=N/A speed=18.4x    frame=24120 fps=441 q=-0.0 size=N/A time=00:16:46.00 bitrate=N/A speed=18.4x    frame=24367 fps=441 q=-0.0 size=N/A time=00:16:56.30 bitrate=N/A speed=18.4x    frame=24593 fps=441 q=-0.0 size=N/A time=00:17:05.73 bitrate=N/A speed=18.4x    frame=24823 fps=441 q=-0.0 size=N/A time=00:17:15.32 bitrate=N/A speed=18.4x    frame=25049 fps=441 q=-0.0 size=N/A time=00:17:24.75 bitrate=N/A speed=18.4x    frame=25299 fps=442 q=-0.0 size=N/A time=00:17:35.17 bitrate=N/A speed=18.4x    frame=25561 fps=442 q=-0.0 size=N/A time=00:17:46.10 bitrate=N/A speed=18.4x    frame=25809 fps=443 q=-0.0 size=N/A time=00:17:56.45 bitrate=N/A speed=18.5x    frame=26062 fps=443 q=-0.0 size=N/A time=00:18:07.00 bitrate=N/A speed=18.5x    frame=26293 fps=443 q=-0.0 size=N/A time=00:18:16.63 bitrate=N/A speed=18.5x    frame=26513 fps=443 q=-0.0 size=N/A time=00:18:25.81 bitrate=N/A speed=18.5x    frame=26739 fps=443 q=-0.0 size=N/A time=00:18:35.23 bitrate=N/A speed=18.5x    frame=26961 fps=443 q=-0.0 size=N/A time=00:18:44.49 bitrate=N/A speed=18.5x    frame=27194 fps=443 q=-0.0 size=N/A time=00:18:54.21 bitrate=N/A speed=18.5x    frame=27447 fps=443 q=-0.0 size=N/A time=00:19:04.76 bitrate=N/A speed=18.5x    frame=27716 fps=444 q=-0.0 size=N/A time=00:19:16.02 bitrate=N/A speed=18.5x    frame=27959 fps=444 q=-0.0 size=N/A time=00:19:26.12 bitrate=N/A speed=18.5x    frame=28209 fps=444 q=-0.0 size=N/A time=00:19:36.55 bitrate=N/A speed=18.5x    frame=28450 fps=445 q=-0.0 size=N/A time=00:19:46.60 bitrate=N/A speed=18.5x    frame=28700 fps=445 q=-0.0 size=N/A time=00:19:57.02 bitrate=N/A speed=18.6x    frame=28950 fps=445 q=-0.0 size=N/A time=00:20:07.45 bitrate=N/A speed=18.6x    frame=29215 fps=446 q=-0.0 size=N/A time=00:20:18.50 bitrate=N/A speed=18.6x    frame=29462 fps=446 q=-0.0 size=N/A time=00:20:28.81 bitrate=N/A speed=18.6x    frame=29711 fps=446 q=-0.0 size=N/A time=00:20:39.19 bitrate=N/A speed=18.6x    frame=29939 fps=446 q=-0.0 size=N/A time=00:20:48.70 bitrate=N/A speed=18.6x    frame=30188 fps=447 q=-0.0 size=N/A time=00:20:59.09 bitrate=N/A speed=18.6x    frame=30421 fps=447 q=-0.0 size=N/A time=00:21:08.80 bitrate=N/A speed=18.6x    frame=30604 fps=446 q=-0.0 size=N/A time=00:21:16.44 bitrate=N/A speed=18.6x    frame=30830 fps=446 q=-0.0 size=N/A time=00:21:25.86 bitrate=N/A speed=18.6x    frame=31078 fps=446 q=-0.0 size=N/A time=00:21:36.21 bitrate=N/A speed=18.6x    frame=31300 fps=446 q=-0.0 size=N/A time=00:21:45.47 bitrate=N/A speed=18.6x    frame=31507 fps=446 q=-0.0 size=N/A time=00:21:54.10 bitrate=N/A speed=18.6x    frame=31744 fps=446 q=-0.0 size=N/A time=00:22:03.98 bitrate=N/A speed=18.6x    frame=31978 fps=446 q=-0.0 size=N/A time=00:22:13.74 bitrate=N/A speed=18.6x    frame=32200 fps=446 q=-0.0 size=N/A time=00:22:23.00 bitrate=N/A speed=18.6x    frame=32422 fps=446 q=-0.0 size=N/A time=00:22:32.26 bitrate=N/A speed=18.6x    frame=32641 fps=445 q=-0.0 size=N/A time=00:22:41.40 bitrate=N/A speed=18.6x    frame=32830 fps=445 q=-0.0 size=N/A time=00:22:49.28 bitrate=N/A speed=18.6x    frame=33016 fps=444 q=-0.0 size=N/A time=00:22:57.04 bitrate=N/A speed=18.5x    frame=33226 fps=444 q=-0.0 size=N/A time=00:23:05.80 bitrate=N/A speed=18.5x    frame=33439 fps=444 q=-0.0 size=N/A time=00:23:14.68 bitrate=N/A speed=18.5x    frame=33670 fps=444 q=-0.0 size=N/A time=00:23:24.31 bitrate=N/A speed=18.5x    frame=33906 fps=444 q=-0.0 size=N/A time=00:23:34.16 bitrate=N/A speed=18.5x    frame=34123 fps=444 q=-0.0 size=N/A time=00:23:43.21 bitrate=N/A speed=18.5x    [Parsed_psnr_10 @ 0000016a33e2a440] PSNR y:48.838643 u:50.855765 v:51.187686 average:49.451190 min:35.964501 max:inf
[out#0/null @ 0000016a33e04340] video:14697KiB audio:267700KiB subtitle:0KiB other streams:0KiB global headers:0KiB muxing overhead: unknown
frame=34203 fps=444 q=-0.0 Lsize=N/A time=00:23:46.55 bitrate=N/A speed=18.5x    
